<svg width="284" height="69" viewBox="0 0 284 69" fill="none" xmlns="http://www.w3.org/2000/svg">
<rect y="0.00585938" width="284" height="42" rx="8" fill="url(#paint0_linear_31_891)"/>
<path d="M28 23.5059H28.5V23.0059V19.0059V18.5059H28H22.5V13.0059V12.5059H22H18H17.5V13.0059V18.5059H12H11.5V19.0059V23.0059V23.5059H12H17.5V29.0059V29.5059H18H22H22.5V29.0059V23.5059H28Z" fill="#68DBF7" stroke="white"/>
<path d="M41.92 29.0059V11.9659H44.608V26.6299H53.752V29.0059H41.92ZM55.9356 29.0059V11.9659H58.6236V29.0059H55.9356ZM62.4747 29.0059V11.9659H73.8267V14.3419H65.1627V19.4299H72.4107V21.6619H65.1627V29.0059H62.4747ZM88.0611 26.6299V29.0059H76.3731V11.9659H87.8451V14.3419H79.0611V19.1899H86.6691V21.4219H79.0611V26.6299H88.0611ZM89.4025 20.3659C89.4025 19.3419 89.5865 18.3259 89.9545 17.3179C90.3225 16.2939 90.8585 15.3819 91.5625 14.5819C92.2825 13.7659 93.1545 13.1099 94.1785 12.6139C95.2025 12.1179 96.3625 11.8699 97.6585 11.8699C99.2105 11.8699 100.539 12.2139 101.643 12.9019C102.747 13.5899 103.579 14.4859 104.139 15.5899L102.027 17.0059C101.787 16.4939 101.499 16.0619 101.163 15.7099C100.827 15.3579 100.459 15.0779 100.059 14.8699C99.6585 14.6619 99.2425 14.5179 98.8105 14.4379C98.3785 14.3419 97.9625 14.2939 97.5625 14.2939C96.6665 14.2939 95.8825 14.4779 95.2105 14.8459C94.5385 15.1979 93.9705 15.6699 93.5065 16.2619C93.0585 16.8539 92.7145 17.5179 92.4745 18.2539C92.2505 18.9899 92.1385 19.7259 92.1385 20.4619C92.1385 21.2939 92.2745 22.0859 92.5465 22.8379C92.8185 23.5899 93.1945 24.2539 93.6745 24.8299C94.1705 25.4059 94.7545 25.8699 95.4265 26.2219C96.0985 26.5579 96.8345 26.7259 97.6345 26.7259C98.0505 26.7259 98.4745 26.6779 98.9065 26.5819C99.3545 26.4699 99.7785 26.3019 100.179 26.0779C100.595 25.8379 100.971 25.5419 101.307 25.1899C101.659 24.8379 101.947 24.4139 102.171 23.9179L104.403 25.1899C104.131 25.8299 103.747 26.3979 103.251 26.8939C102.755 27.3739 102.195 27.7819 101.571 28.1179C100.947 28.4539 100.283 28.7099 99.5785 28.8859C98.8905 29.0619 98.2105 29.1499 97.5385 29.1499C96.3385 29.1499 95.2425 28.8939 94.2505 28.3819C93.2585 27.8699 92.4025 27.2059 91.6825 26.3899C90.9625 25.5579 90.4025 24.6219 90.0025 23.5819C89.6025 22.5259 89.4025 21.4539 89.4025 20.3659ZM111.67 11.9659H114.022L120.742 29.0059H117.91L116.11 24.3739H109.534L107.758 29.0059H104.902L111.67 11.9659ZM115.582 22.3819L112.846 15.0619L110.014 22.3819H115.582ZM122.85 29.0059V11.9659H130.266C131.034 11.9659 131.738 12.1259 132.378 12.4459C133.034 12.7659 133.594 13.1899 134.058 13.7179C134.522 14.2299 134.882 14.8219 135.138 15.4939C135.41 16.1499 135.546 16.8219 135.546 17.5099C135.546 18.0859 135.466 18.6379 135.306 19.1659C135.146 19.6939 134.922 20.1819 134.634 20.6299C134.346 21.0779 133.994 21.4699 133.578 21.8059C133.162 22.1259 132.706 22.3659 132.21 22.5259L136.218 29.0059H133.17L129.474 23.0779H125.538V29.0059H122.85ZM125.538 20.7019H130.242C130.626 20.7019 130.97 20.6219 131.274 20.4619C131.594 20.2859 131.866 20.0539 132.09 19.7659C132.314 19.4619 132.49 19.1179 132.618 18.7339C132.746 18.3499 132.81 17.9419 132.81 17.5099C132.81 17.0779 132.73 16.6699 132.57 16.2859C132.426 15.9019 132.226 15.5659 131.97 15.2779C131.73 14.9899 131.442 14.7659 131.106 14.6059C130.786 14.4299 130.45 14.3419 130.098 14.3419H125.538V20.7019ZM150.405 26.6299V29.0059H138.717V11.9659H150.189V14.3419H141.405V19.1899H149.013V21.4219H141.405V26.6299H150.405ZM162.906 15.9739C162.746 15.7979 162.514 15.6139 162.21 15.4219C161.906 15.2139 161.546 15.0219 161.13 14.8459C160.73 14.6699 160.282 14.5259 159.786 14.4139C159.306 14.3019 158.81 14.2459 158.298 14.2459C157.162 14.2459 156.322 14.4539 155.778 14.8699C155.25 15.2859 154.986 15.8619 154.986 16.5979C154.986 17.0139 155.066 17.3579 155.226 17.6299C155.402 17.8859 155.666 18.1179 156.018 18.3259C156.37 18.5179 156.81 18.6939 157.338 18.8539C157.866 18.9979 158.482 19.1579 159.186 19.3339C160.05 19.5419 160.826 19.7739 161.514 20.0299C162.218 20.2859 162.81 20.5979 163.29 20.9659C163.77 21.3339 164.138 21.7899 164.394 22.3339C164.666 22.8619 164.802 23.5099 164.802 24.2779C164.802 25.1419 164.634 25.8859 164.298 26.5099C163.978 27.1339 163.53 27.6459 162.954 28.0459C162.394 28.4299 161.738 28.7179 160.986 28.9099C160.234 29.0859 159.426 29.1739 158.562 29.1739C157.266 29.1739 156.01 28.9819 154.794 28.5979C153.594 28.1979 152.506 27.6219 151.53 26.8699L152.754 24.5659C152.962 24.7739 153.258 25.0059 153.642 25.2619C154.042 25.5179 154.498 25.7579 155.01 25.9819C155.538 26.1899 156.106 26.3739 156.714 26.5339C157.322 26.6779 157.954 26.7499 158.61 26.7499C159.666 26.7499 160.482 26.5659 161.058 26.1979C161.634 25.8299 161.922 25.2859 161.922 24.5659C161.922 24.1339 161.81 23.7739 161.586 23.4859C161.378 23.1979 161.074 22.9499 160.674 22.7419C160.274 22.5179 159.786 22.3179 159.21 22.1419C158.634 21.9659 157.978 21.7819 157.242 21.5899C156.394 21.3659 155.65 21.1339 155.01 20.8939C154.386 20.6379 153.866 20.3339 153.45 19.9819C153.034 19.6299 152.714 19.2219 152.49 18.7579C152.282 18.2779 152.178 17.7019 152.178 17.0299C152.178 16.1979 152.338 15.4619 152.658 14.8219C152.978 14.1659 153.41 13.6219 153.954 13.1899C154.514 12.7419 155.17 12.4059 155.922 12.1819C156.674 11.9579 157.49 11.8459 158.37 11.8459C159.522 11.8459 160.586 12.0299 161.562 12.3979C162.538 12.7659 163.394 13.2219 164.13 13.7659L162.906 15.9739ZM179.186 26.6299V29.0059H167.498V11.9659H178.97V14.3419H170.186V19.1899H177.794V21.4219H170.186V26.6299H179.186ZM180.528 20.3659C180.528 19.3419 180.712 18.3259 181.08 17.3179C181.448 16.2939 181.984 15.3819 182.688 14.5819C183.408 13.7659 184.28 13.1099 185.304 12.6139C186.328 12.1179 187.488 11.8699 188.784 11.8699C190.336 11.8699 191.664 12.2139 192.768 12.9019C193.872 13.5899 194.704 14.4859 195.264 15.5899L193.152 17.0059C192.912 16.4939 192.624 16.0619 192.288 15.7099C191.952 15.3579 191.584 15.0779 191.184 14.8699C190.784 14.6619 190.368 14.5179 189.936 14.4379C189.504 14.3419 189.088 14.2939 188.688 14.2939C187.792 14.2939 187.008 14.4779 186.336 14.8459C185.664 15.1979 185.096 15.6699 184.632 16.2619C184.184 16.8539 183.84 17.5179 183.6 18.2539C183.376 18.9899 183.264 19.7259 183.264 20.4619C183.264 21.2939 183.4 22.0859 183.672 22.8379C183.944 23.5899 184.32 24.2539 184.8 24.8299C185.296 25.4059 185.88 25.8699 186.552 26.2219C187.224 26.5579 187.96 26.7259 188.76 26.7259C189.176 26.7259 189.6 26.6779 190.032 26.5819C190.48 26.4699 190.904 26.3019 191.304 26.0779C191.72 25.8379 192.096 25.5419 192.432 25.1899C192.784 24.8379 193.072 24.4139 193.296 23.9179L195.528 25.1899C195.256 25.8299 194.872 26.3979 194.376 26.8939C193.88 27.3739 193.32 27.7819 192.696 28.1179C192.072 28.4539 191.408 28.7099 190.704 28.8859C190.016 29.0619 189.336 29.1499 188.664 29.1499C187.464 29.1499 186.368 28.8939 185.376 28.3819C184.384 27.8699 183.528 27.2059 182.808 26.3899C182.088 25.5579 181.528 24.6219 181.128 23.5819C180.728 22.5259 180.528 21.4539 180.528 20.3659ZM205.118 26.7019C206.014 26.7019 206.758 26.5259 207.35 26.1739C207.942 25.8219 208.414 25.3659 208.766 24.8059C209.134 24.2299 209.39 23.5819 209.534 22.8619C209.694 22.1259 209.774 21.3739 209.774 20.6059V11.9659H212.486V20.6059C212.486 21.7739 212.35 22.8779 212.078 23.9179C211.806 24.9419 211.374 25.8459 210.782 26.6299C210.19 27.3979 209.422 28.0059 208.478 28.4539C207.55 28.9019 206.43 29.1259 205.118 29.1259C203.758 29.1259 202.606 28.8939 201.662 28.4299C200.734 27.9499 199.982 27.3179 199.406 26.5339C198.83 25.7339 198.414 24.8219 198.158 23.7979C197.902 22.7739 197.774 21.7099 197.774 20.6059V11.9659H200.462V20.6059C200.462 21.3899 200.534 22.1499 200.678 22.8859C200.838 23.6059 201.094 24.2539 201.446 24.8299C201.814 25.3899 202.294 25.8459 202.886 26.1979C203.494 26.5339 204.238 26.7019 205.118 26.7019ZM216.061 29.0059V11.9659H223.477C224.245 11.9659 224.949 12.1259 225.589 12.4459C226.245 12.7659 226.805 13.1899 227.269 13.7179C227.733 14.2299 228.093 14.8219 228.349 15.4939C228.621 16.1499 228.757 16.8219 228.757 17.5099C228.757 18.0859 228.677 18.6379 228.517 19.1659C228.357 19.6939 228.133 20.1819 227.845 20.6299C227.557 21.0779 227.205 21.4699 226.789 21.8059C226.373 22.1259 225.917 22.3659 225.421 22.5259L229.429 29.0059H226.381L222.685 23.0779H218.749V29.0059H216.061ZM218.749 20.7019H223.453C223.837 20.7019 224.181 20.6219 224.485 20.4619C224.805 20.2859 225.077 20.0539 225.301 19.7659C225.525 19.4619 225.701 19.1179 225.829 18.7339C225.957 18.3499 226.021 17.9419 226.021 17.5099C226.021 17.0779 225.941 16.6699 225.781 16.2859C225.637 15.9019 225.437 15.5659 225.181 15.2779C224.941 14.9899 224.653 14.7659 224.317 14.6059C223.997 14.4299 223.661 14.3419 223.309 14.3419H218.749V20.7019ZM231.928 29.0059V11.9659H234.616V29.0059H231.928ZM250.971 14.3419H245.307V29.0059H242.595V14.3419H236.907V11.9659H250.971V14.3419ZM254.504 11.9659L259.208 20.5099L263.96 11.9659H266.912L260.552 22.9099V29.0059H257.864V22.8619L251.552 11.9659H254.504Z" fill="white"/>
<path d="M7.625 58.4263C7.56439 57.8884 7.31439 57.4718 6.875 57.1763C6.43561 56.8771 5.88258 56.7275 5.21591 56.7275C4.73864 56.7275 4.32576 56.8032 3.97727 56.9547C3.62879 57.1024 3.35795 57.307 3.16477 57.5684C2.97538 57.8259 2.88068 58.1195 2.88068 58.449C2.88068 58.7256 2.94508 58.9642 3.07386 59.1649C3.20644 59.3657 3.37879 59.5343 3.59091 59.6706C3.80682 59.8032 4.03788 59.915 4.28409 60.0059C4.5303 60.093 4.76705 60.165 4.99432 60.2218L6.13068 60.5172C6.50189 60.6081 6.88258 60.7312 7.27273 60.8865C7.66288 61.0418 8.02462 61.2464 8.35795 61.5002C8.69129 61.754 8.96023 62.0684 9.16477 62.4434C9.37311 62.8184 9.47727 63.2672 9.47727 63.79C9.47727 64.449 9.30682 65.0343 8.96591 65.5456C8.62879 66.057 8.13826 66.4604 7.49432 66.7559C6.85417 67.0513 6.07955 67.199 5.17045 67.199C4.29924 67.199 3.54545 67.0608 2.90909 66.7843C2.27273 66.5078 1.77462 66.1157 1.41477 65.6081C1.05492 65.0968 0.856061 64.4907 0.818182 63.79H2.57955C2.61364 64.2104 2.75 64.5608 2.98864 64.8411C3.23106 65.1176 3.53977 65.324 3.91477 65.4604C4.29356 65.593 4.70833 65.6593 5.15909 65.6593C5.6553 65.6593 6.09659 65.5816 6.48295 65.4263C6.87311 65.2672 7.17992 65.0475 7.40341 64.7672C7.62689 64.4831 7.73864 64.1517 7.73864 63.7729C7.73864 63.4282 7.64015 63.146 7.44318 62.9263C7.25 62.7066 6.98674 62.5248 6.65341 62.3809C6.32386 62.2369 5.95076 62.11 5.53409 62.0002L4.15909 61.6252C3.22727 61.3714 2.48864 60.9983 1.94318 60.5059C1.40152 60.0134 1.13068 59.3619 1.13068 58.5513C1.13068 57.8809 1.3125 57.2956 1.67614 56.7956C2.03977 56.2956 2.5322 55.9074 3.15341 55.6309C3.77462 55.3506 4.47538 55.2104 5.25568 55.2104C6.04356 55.2104 6.73864 55.3487 7.34091 55.6252C7.94697 55.9017 8.42424 56.2824 8.77273 56.7672C9.12121 57.2483 9.30303 57.8013 9.31818 58.4263H7.625ZM15.2003 67.182C14.3404 67.182 13.5999 66.9983 12.9787 66.6309C12.3613 66.2596 11.884 65.7388 11.5469 65.0684C11.2135 64.3941 11.0469 63.6043 11.0469 62.699C11.0469 61.8051 11.2135 61.0172 11.5469 60.3354C11.884 59.6536 12.3537 59.1214 12.956 58.7388C13.562 58.3562 14.2704 58.165 15.081 58.165C15.5734 58.165 16.0507 58.2464 16.5128 58.4093C16.9749 58.5721 17.3897 58.8278 17.7571 59.1763C18.1245 59.5248 18.4143 59.9775 18.6264 60.5343C18.8385 61.0873 18.9446 61.7596 18.9446 62.5513V63.1536H12.0071V61.8809H17.2798C17.2798 61.4339 17.1889 61.0381 17.0071 60.6934C16.8253 60.3449 16.5696 60.0703 16.2401 59.8695C15.9143 59.6687 15.5317 59.5684 15.0923 59.5684C14.6151 59.5684 14.1984 59.6858 13.8423 59.9206C13.4901 60.1517 13.2173 60.4547 13.0241 60.8297C12.8348 61.2009 12.7401 61.6043 12.7401 62.04V63.0343C12.7401 63.6176 12.8423 64.1138 13.0469 64.5229C13.2552 64.932 13.545 65.2445 13.9162 65.4604C14.2874 65.6725 14.7211 65.7786 15.2173 65.7786C15.5393 65.7786 15.8329 65.7331 16.098 65.6422C16.3632 65.5475 16.5923 65.4074 16.7855 65.2218C16.9787 65.0362 17.1264 64.807 17.2287 64.5343L18.8366 64.824C18.7079 65.2975 18.4768 65.7123 18.1435 66.0684C17.8139 66.4206 17.3991 66.6953 16.8991 66.8922C16.4029 67.0854 15.8366 67.182 15.2003 67.182ZM24.5057 67.182C23.661 67.182 22.9337 66.9907 22.3239 66.6081C21.7178 66.2218 21.2519 65.6896 20.9261 65.0115C20.6004 64.3335 20.4375 63.557 20.4375 62.682C20.4375 61.7956 20.6042 61.0134 20.9375 60.3354C21.2708 59.6536 21.7405 59.1214 22.3466 58.7388C22.9527 58.3562 23.6667 58.165 24.4886 58.165C25.1515 58.165 25.7424 58.2881 26.2614 58.5343C26.7803 58.7767 27.1989 59.1176 27.517 59.557C27.839 59.9964 28.0303 60.5096 28.0909 61.0968H26.4375C26.3466 60.6877 26.1383 60.3354 25.8125 60.0399C25.4905 59.7445 25.0587 59.5968 24.517 59.5968C24.0436 59.5968 23.6288 59.7218 23.2727 59.9718C22.9205 60.218 22.6458 60.5703 22.4489 61.0286C22.2519 61.4831 22.1534 62.021 22.1534 62.6422C22.1534 63.2786 22.25 63.8278 22.4432 64.29C22.6364 64.7521 22.9091 65.11 23.2614 65.3638C23.6174 65.6176 24.036 65.7445 24.517 65.7445C24.839 65.7445 25.1307 65.6858 25.392 65.5684C25.6572 65.4471 25.8788 65.2748 26.0568 65.0513C26.2386 64.8278 26.3655 64.5589 26.4375 64.2445H28.0909C28.0303 64.8089 27.8466 65.3127 27.5398 65.7559C27.233 66.199 26.822 66.5475 26.3068 66.8013C25.7955 67.0551 25.1951 67.182 24.5057 67.182ZM35.4361 63.3865V58.2786H37.1406V67.0059H35.4702V65.4945H35.3793C35.1785 65.9604 34.8565 66.3487 34.4134 66.6593C33.974 66.9661 33.4266 67.1195 32.7713 67.1195C32.2107 67.1195 31.7145 66.9964 31.2827 66.7502C30.8546 66.5002 30.5175 66.1309 30.2713 65.6422C30.0289 65.1536 29.9077 64.5494 29.9077 63.8297V58.2786H31.6065V63.6252C31.6065 64.2199 31.7713 64.6934 32.1009 65.0456C32.4304 65.3979 32.8584 65.574 33.3849 65.574C33.7031 65.574 34.0194 65.4945 34.3338 65.3354C34.652 65.1763 34.9152 64.9358 35.1236 64.6138C35.3357 64.2918 35.4399 63.8828 35.4361 63.3865ZM39.4233 67.0059V58.2786H41.0653V59.6649H41.1562C41.3153 59.1953 41.5956 58.8259 41.9972 58.557C42.4025 58.2843 42.8608 58.1479 43.3722 58.1479C43.4782 58.1479 43.6032 58.1517 43.7472 58.1593C43.8949 58.1668 44.0104 58.1763 44.0938 58.1877V59.8127C44.0256 59.7937 43.9044 59.7729 43.7301 59.7502C43.5559 59.7237 43.3816 59.7104 43.2074 59.7104C42.8059 59.7104 42.4479 59.7956 42.1335 59.9661C41.8229 60.1328 41.5767 60.3657 41.3949 60.6649C41.2131 60.9604 41.1222 61.2975 41.1222 61.6763V67.0059H39.4233ZM49.0128 67.182C48.1529 67.182 47.4124 66.9983 46.7912 66.6309C46.1738 66.2596 45.6965 65.7388 45.3594 65.0684C45.026 64.3941 44.8594 63.6043 44.8594 62.699C44.8594 61.8051 45.026 61.0172 45.3594 60.3354C45.6965 59.6536 46.1662 59.1214 46.7685 58.7388C47.3745 58.3562 48.0829 58.165 48.8935 58.165C49.3859 58.165 49.8632 58.2464 50.3253 58.4093C50.7874 58.5721 51.2022 58.8278 51.5696 59.1763C51.937 59.5248 52.2268 59.9775 52.4389 60.5343C52.651 61.0873 52.7571 61.7596 52.7571 62.5513V63.1536H45.8196V61.8809H51.0923C51.0923 61.4339 51.0014 61.0381 50.8196 60.6934C50.6378 60.3449 50.3821 60.0703 50.0526 59.8695C49.7268 59.6687 49.3442 59.5684 48.9048 59.5684C48.4276 59.5684 48.0109 59.6858 47.6548 59.9206C47.3026 60.1517 47.0298 60.4547 46.8366 60.8297C46.6473 61.2009 46.5526 61.6043 46.5526 62.04V63.0343C46.5526 63.6176 46.6548 64.1138 46.8594 64.5229C47.0677 64.932 47.3575 65.2445 47.7287 65.4604C48.0999 65.6725 48.5336 65.7786 49.0298 65.7786C49.3518 65.7786 49.6454 65.7331 49.9105 65.6422C50.1757 65.5475 50.4048 65.4074 50.598 65.2218C50.7912 65.0362 50.9389 64.807 51.0412 64.5343L52.6491 64.824C52.5204 65.2975 52.2893 65.7123 51.956 66.0684C51.6264 66.4206 51.2116 66.6953 50.7116 66.8922C50.2154 67.0854 49.6491 67.182 49.0128 67.182ZM58.1151 55.3695H60.1094L63.1491 60.6593H63.2741L66.3139 55.3695H68.3082L64.0866 62.4377V67.0059H62.3366V62.4377L58.1151 55.3695ZM72.0682 67.182C71.25 67.182 70.536 66.9945 69.9261 66.6195C69.3163 66.2445 68.8428 65.7199 68.5057 65.0456C68.1686 64.3714 68 63.5835 68 62.682C68 61.7767 68.1686 60.985 68.5057 60.307C68.8428 59.629 69.3163 59.1025 69.9261 58.7275C70.536 58.3525 71.25 58.165 72.0682 58.165C72.8864 58.165 73.6004 58.3525 74.2102 58.7275C74.8201 59.1025 75.2936 59.629 75.6307 60.307C75.9678 60.985 76.1364 61.7767 76.1364 62.682C76.1364 63.5835 75.9678 64.3714 75.6307 65.0456C75.2936 65.7199 74.8201 66.2445 74.2102 66.6195C73.6004 66.9945 72.8864 67.182 72.0682 67.182ZM72.0739 65.7559C72.6042 65.7559 73.0436 65.6157 73.392 65.3354C73.7405 65.0551 73.9981 64.682 74.1648 64.2161C74.3352 63.7502 74.4205 63.2369 74.4205 62.6763C74.4205 62.1195 74.3352 61.6081 74.1648 61.1422C73.9981 60.6725 73.7405 60.2956 73.392 60.0115C73.0436 59.7274 72.6042 59.5854 72.0739 59.5854C71.5398 59.5854 71.0966 59.7274 70.7443 60.0115C70.3958 60.2956 70.1364 60.6725 69.9659 61.1422C69.7992 61.6081 69.7159 62.1195 69.7159 62.6763C69.7159 63.2369 69.7992 63.7502 69.9659 64.2161C70.1364 64.682 70.3958 65.0551 70.7443 65.3354C71.0966 65.6157 71.5398 65.7559 72.0739 65.7559ZM83.5611 63.3865V58.2786H85.2656V67.0059H83.5952V65.4945H83.5043C83.3035 65.9604 82.9815 66.3487 82.5384 66.6593C82.099 66.9661 81.5516 67.1195 80.8963 67.1195C80.3357 67.1195 79.8395 66.9964 79.4077 66.7502C78.9796 66.5002 78.6425 66.1309 78.3963 65.6422C78.1539 65.1536 78.0327 64.5494 78.0327 63.8297V58.2786H79.7315V63.6252C79.7315 64.2199 79.8963 64.6934 80.2259 65.0456C80.5554 65.3979 80.9834 65.574 81.5099 65.574C81.8281 65.574 82.1444 65.4945 82.4588 65.3354C82.777 65.1763 83.0402 64.9358 83.2486 64.6138C83.4607 64.2918 83.5649 63.8828 83.5611 63.3865ZM87.5483 67.0059V58.2786H89.1903V59.6649H89.2812C89.4403 59.1953 89.7206 58.8259 90.1222 58.557C90.5275 58.2843 90.9858 58.1479 91.4972 58.1479C91.6032 58.1479 91.7282 58.1517 91.8722 58.1593C92.0199 58.1668 92.1354 58.1763 92.2188 58.1877V59.8127C92.1506 59.7937 92.0294 59.7729 91.8551 59.7502C91.6809 59.7237 91.5066 59.7104 91.3324 59.7104C90.9309 59.7104 90.5729 59.7956 90.2585 59.9661C89.9479 60.1328 89.7017 60.3657 89.5199 60.6649C89.3381 60.9604 89.2472 61.2975 89.2472 61.6763V67.0059H87.5483ZM98.0597 67.0059V55.3695H105.276V56.8809H99.8153V60.4263H104.759V61.932H99.8153V67.0059H98.0597ZM112.28 63.3865V58.2786H113.984V67.0059H112.314V65.4945H112.223C112.022 65.9604 111.7 66.3487 111.257 66.6593C110.818 66.9661 110.27 67.1195 109.615 67.1195C109.054 67.1195 108.558 66.9964 108.126 66.7502C107.698 66.5002 107.361 66.1309 107.115 65.6422C106.873 65.1536 106.751 64.5494 106.751 63.8297V58.2786H108.45V63.6252C108.45 64.2199 108.615 64.6934 108.945 65.0456C109.274 65.3979 109.702 65.574 110.229 65.574C110.547 65.574 110.863 65.4945 111.178 65.3354C111.496 65.1763 111.759 64.9358 111.967 64.6138C112.179 64.2918 112.284 63.8828 112.28 63.3865ZM120.341 58.2786V59.6422H115.574V58.2786H120.341ZM116.852 56.1877H118.551V64.4434C118.551 64.7729 118.6 65.021 118.699 65.1877C118.797 65.3506 118.924 65.4623 119.08 65.5229C119.239 65.5797 119.411 65.6081 119.597 65.6081C119.733 65.6081 119.852 65.5987 119.955 65.5797C120.057 65.5608 120.136 65.5456 120.193 65.5343L120.5 66.9377C120.402 66.9756 120.261 67.0134 120.08 67.0513C119.898 67.093 119.67 67.1157 119.398 67.1195C118.951 67.1271 118.534 67.0475 118.148 66.8809C117.761 66.7142 117.449 66.4566 117.21 66.1081C116.972 65.7596 116.852 65.3221 116.852 64.7956V56.1877ZM127.749 63.3865V58.2786H129.453V67.0059H127.783V65.4945H127.692C127.491 65.9604 127.169 66.3487 126.726 66.6593C126.286 66.9661 125.739 67.1195 125.084 67.1195C124.523 67.1195 124.027 66.9964 123.595 66.7502C123.167 66.5002 122.83 66.1309 122.584 65.6422C122.341 65.1536 122.22 64.5494 122.22 63.8297V58.2786H123.919V63.6252C123.919 64.2199 124.084 64.6934 124.413 65.0456C124.743 65.3979 125.171 65.574 125.697 65.574C126.016 65.574 126.332 65.4945 126.646 65.3354C126.964 65.1763 127.228 64.9358 127.436 64.6138C127.648 64.2918 127.752 63.8828 127.749 63.3865ZM131.736 67.0059V58.2786H133.378V59.6649H133.469C133.628 59.1953 133.908 58.8259 134.31 58.557C134.715 58.2843 135.173 58.1479 135.685 58.1479C135.791 58.1479 135.916 58.1517 136.06 58.1593C136.207 58.1668 136.323 58.1763 136.406 58.1877V59.8127C136.338 59.7937 136.217 59.7729 136.043 59.7502C135.868 59.7237 135.694 59.7104 135.52 59.7104C135.118 59.7104 134.76 59.7956 134.446 59.9661C134.135 60.1328 133.889 60.3657 133.707 60.6649C133.526 60.9604 133.435 61.2975 133.435 61.6763V67.0059H131.736ZM141.325 67.182C140.465 67.182 139.725 66.9983 139.104 66.6309C138.486 66.2596 138.009 65.7388 137.672 65.0684C137.339 64.3941 137.172 63.6043 137.172 62.699C137.172 61.8051 137.339 61.0172 137.672 60.3354C138.009 59.6536 138.479 59.1214 139.081 58.7388C139.687 58.3562 140.395 58.165 141.206 58.165C141.698 58.165 142.176 58.2464 142.638 58.4093C143.1 58.5721 143.515 58.8278 143.882 59.1763C144.25 59.5248 144.539 59.9775 144.751 60.5343C144.964 61.0873 145.07 61.7596 145.07 62.5513V63.1536H138.132V61.8809H143.405C143.405 61.4339 143.314 61.0381 143.132 60.6934C142.95 60.3449 142.695 60.0703 142.365 59.8695C142.039 59.6687 141.657 59.5684 141.217 59.5684C140.74 59.5684 140.323 59.6858 139.967 59.9206C139.615 60.1517 139.342 60.4547 139.149 60.8297C138.96 61.2009 138.865 61.6043 138.865 62.04V63.0343C138.865 63.6176 138.967 64.1138 139.172 64.5229C139.38 64.932 139.67 65.2445 140.041 65.4604C140.412 65.6725 140.846 65.7786 141.342 65.7786C141.664 65.7786 141.958 65.7331 142.223 65.6422C142.488 65.5475 142.717 65.4074 142.911 65.2218C143.104 65.0362 143.251 64.807 143.354 64.5343L144.962 64.824C144.833 65.2975 144.602 65.7123 144.268 66.0684C143.939 66.4206 143.524 66.6953 143.024 66.8922C142.528 67.0854 141.962 67.182 141.325 67.182Z" fill="white"/>
<defs>
<linearGradient id="paint0_linear_31_891" x1="0" y1="21.0059" x2="284" y2="21.0059" gradientUnits="userSpaceOnUse">
<stop stop-color="#FF3333"/>
<stop offset="1" stop-color="#FF0000"/>
</linearGradient>
</defs>
</svg>
