<svg width="236" height="38" viewBox="0 0 236 38" fill="none" xmlns="http://www.w3.org/2000/svg">
<rect width="236" height="38" rx="8" fill="url(#paint0_linear_19_224)"/>
<path d="M28 21.5H28.5V21V17V16.5H28H22.5V11V10.5H22H18H17.5V11V16.5H12H11.5V17V21V21.5H12H17.5V27V27.5H18H22H22.5V27V21.5H28Z" fill="#68DBF7" stroke="white"/>
<path d="M41.52 26V12.51H43.648V24.119H50.887V26H41.52ZM52.6157 26V12.51H54.7437V26H52.6157ZM57.7925 26V12.51H66.7795V14.391H59.9205V18.419H65.6585V20.186H59.9205V26H57.7925ZM78.0484 24.119V26H68.7954V12.51H77.8774V14.391H70.9234V18.229H76.9464V19.996H70.9234V24.119H78.0484ZM79.1103 19.16C79.1103 18.3493 79.256 17.545 79.5473 16.747C79.8386 15.9363 80.263 15.2143 80.8203 14.581C81.3903 13.935 82.0806 13.4157 82.8913 13.023C83.702 12.6303 84.6203 12.434 85.6463 12.434C86.875 12.434 87.9263 12.7063 88.8003 13.251C89.6743 13.7957 90.333 14.505 90.7763 15.379L89.1043 16.5C88.9143 16.0947 88.6863 15.7527 88.4203 15.474C88.1543 15.1953 87.863 14.9737 87.5463 14.809C87.2296 14.6443 86.9003 14.5303 86.5583 14.467C86.2163 14.391 85.887 14.353 85.5703 14.353C84.861 14.353 84.2403 14.4987 83.7083 14.79C83.1763 15.0687 82.7266 15.4423 82.3593 15.911C82.0046 16.3797 81.7323 16.9053 81.5423 17.488C81.365 18.0707 81.2763 18.6533 81.2763 19.236C81.2763 19.8947 81.384 20.5217 81.5993 21.117C81.8146 21.7123 82.1123 22.238 82.4923 22.694C82.885 23.15 83.3473 23.5173 83.8793 23.796C84.4113 24.062 84.994 24.195 85.6273 24.195C85.9566 24.195 86.2923 24.157 86.6343 24.081C86.989 23.9923 87.3246 23.8593 87.6413 23.682C87.9706 23.492 88.2683 23.2577 88.5343 22.979C88.813 22.7003 89.041 22.3647 89.2183 21.972L90.9853 22.979C90.77 23.4857 90.466 23.9353 90.0733 24.328C89.6806 24.708 89.2373 25.031 88.7433 25.297C88.2493 25.563 87.7236 25.7657 87.1663 25.905C86.6216 26.0443 86.0833 26.114 85.5513 26.114C84.6013 26.114 83.7336 25.9113 82.9483 25.506C82.163 25.1007 81.4853 24.575 80.9153 23.929C80.3453 23.2703 79.902 22.5293 79.5853 21.706C79.2686 20.87 79.1103 20.0213 79.1103 19.16ZM96.739 12.51H98.601L103.921 26H101.679L100.254 22.333H95.048L93.642 26H91.381L96.739 12.51ZM99.836 20.756L97.67 14.961L95.428 20.756H99.836ZM105.589 26V12.51H111.46C112.068 12.51 112.626 12.6367 113.132 12.89C113.652 13.1433 114.095 13.479 114.462 13.897C114.83 14.3023 115.115 14.771 115.317 15.303C115.533 15.8223 115.64 16.3543 115.64 16.899C115.64 17.355 115.577 17.792 115.45 18.21C115.324 18.628 115.146 19.0143 114.918 19.369C114.69 19.7237 114.412 20.034 114.082 20.3C113.753 20.5533 113.392 20.7433 112.999 20.87L116.172 26H113.759L110.833 21.307H107.717V26H105.589ZM107.717 19.426H111.441C111.745 19.426 112.018 19.3627 112.258 19.236C112.512 19.0967 112.727 18.913 112.904 18.685C113.082 18.4443 113.221 18.172 113.322 17.868C113.424 17.564 113.474 17.241 113.474 16.899C113.474 16.557 113.411 16.234 113.284 15.93C113.17 15.626 113.012 15.36 112.809 15.132C112.619 14.904 112.391 14.7267 112.125 14.6C111.872 14.4607 111.606 14.391 111.327 14.391H107.717V19.426ZM127.404 24.119V26H118.151V12.51H127.233V14.391H120.279V18.229H126.302V19.996H120.279V24.119H127.404ZM137.301 15.683C137.174 15.5437 136.99 15.398 136.75 15.246C136.509 15.0813 136.224 14.9293 135.895 14.79C135.578 14.6507 135.223 14.5367 134.831 14.448C134.451 14.3593 134.058 14.315 133.653 14.315C132.753 14.315 132.088 14.4797 131.658 14.809C131.24 15.1383 131.031 15.5943 131.031 16.177C131.031 16.5063 131.094 16.7787 131.221 16.994C131.36 17.1967 131.569 17.3803 131.848 17.545C132.126 17.697 132.475 17.8363 132.893 17.963C133.311 18.077 133.798 18.2037 134.356 18.343C135.04 18.5077 135.654 18.6913 136.199 18.894C136.756 19.0967 137.225 19.3437 137.605 19.635C137.985 19.9263 138.276 20.2873 138.479 20.718C138.694 21.136 138.802 21.649 138.802 22.257C138.802 22.941 138.669 23.53 138.403 24.024C138.149 24.518 137.795 24.9233 137.339 25.24C136.895 25.544 136.376 25.772 135.781 25.924C135.185 26.0633 134.546 26.133 133.862 26.133C132.836 26.133 131.841 25.981 130.879 25.677C129.929 25.3603 129.067 24.9043 128.295 24.309L129.264 22.485C129.428 22.6497 129.663 22.8333 129.967 23.036C130.283 23.2387 130.644 23.4287 131.05 23.606C131.468 23.7707 131.917 23.9163 132.399 24.043C132.88 24.157 133.38 24.214 133.9 24.214C134.736 24.214 135.382 24.0683 135.838 23.777C136.294 23.4857 136.522 23.055 136.522 22.485C136.522 22.143 136.433 21.858 136.256 21.63C136.091 21.402 135.85 21.2057 135.534 21.041C135.217 20.8637 134.831 20.7053 134.375 20.566C133.919 20.4267 133.399 20.281 132.817 20.129C132.145 19.9517 131.556 19.768 131.05 19.578C130.556 19.3753 130.144 19.1347 129.815 18.856C129.485 18.5773 129.232 18.2543 129.055 17.887C128.89 17.507 128.808 17.051 128.808 16.519C128.808 15.8603 128.934 15.2777 129.188 14.771C129.441 14.2517 129.783 13.821 130.214 13.479C130.657 13.1243 131.176 12.8583 131.772 12.681C132.367 12.5037 133.013 12.415 133.71 12.415C134.622 12.415 135.464 12.5607 136.237 12.852C137.009 13.1433 137.687 13.5043 138.27 13.935L137.301 15.683ZM150.189 24.119V26H140.936V12.51H150.018V14.391H143.064V18.229H149.087V19.996H143.064V24.119H150.189ZM151.251 19.16C151.251 18.3493 151.397 17.545 151.688 16.747C151.979 15.9363 152.404 15.2143 152.961 14.581C153.531 13.935 154.221 13.4157 155.032 13.023C155.843 12.6303 156.761 12.434 157.787 12.434C159.016 12.434 160.067 12.7063 160.941 13.251C161.815 13.7957 162.474 14.505 162.917 15.379L161.245 16.5C161.055 16.0947 160.827 15.7527 160.561 15.474C160.295 15.1953 160.004 14.9737 159.687 14.809C159.37 14.6443 159.041 14.5303 158.699 14.467C158.357 14.391 158.028 14.353 157.711 14.353C157.002 14.353 156.381 14.4987 155.849 14.79C155.317 15.0687 154.867 15.4423 154.5 15.911C154.145 16.3797 153.873 16.9053 153.683 17.488C153.506 18.0707 153.417 18.6533 153.417 19.236C153.417 19.8947 153.525 20.5217 153.74 21.117C153.955 21.7123 154.253 22.238 154.633 22.694C155.026 23.15 155.488 23.5173 156.02 23.796C156.552 24.062 157.135 24.195 157.768 24.195C158.097 24.195 158.433 24.157 158.775 24.081C159.13 23.9923 159.465 23.8593 159.782 23.682C160.111 23.492 160.409 23.2577 160.675 22.979C160.954 22.7003 161.182 22.3647 161.359 21.972L163.126 22.979C162.911 23.4857 162.607 23.9353 162.214 24.328C161.821 24.708 161.378 25.031 160.884 25.297C160.39 25.563 159.864 25.7657 159.307 25.905C158.762 26.0443 158.224 26.114 157.692 26.114C156.742 26.114 155.874 25.9113 155.089 25.506C154.304 25.1007 153.626 24.575 153.056 23.929C152.486 23.2703 152.043 22.5293 151.726 21.706C151.409 20.87 151.251 20.0213 151.251 19.16ZM170.718 24.176C171.428 24.176 172.017 24.0367 172.485 23.758C172.954 23.4793 173.328 23.1183 173.606 22.675C173.898 22.219 174.1 21.706 174.214 21.136C174.341 20.5533 174.404 19.958 174.404 19.35V12.51H176.551V19.35C176.551 20.2747 176.444 21.1487 176.228 21.972C176.013 22.7827 175.671 23.4983 175.202 24.119C174.734 24.727 174.126 25.2083 173.378 25.563C172.644 25.9177 171.757 26.095 170.718 26.095C169.642 26.095 168.73 25.9113 167.982 25.544C167.248 25.164 166.652 24.6637 166.196 24.043C165.74 23.4097 165.411 22.6877 165.208 21.877C165.006 21.0663 164.904 20.224 164.904 19.35V12.51H167.032V19.35C167.032 19.9707 167.089 20.5723 167.203 21.155C167.33 21.725 167.533 22.238 167.811 22.694C168.103 23.1373 168.483 23.4983 168.951 23.777C169.433 24.043 170.022 24.176 170.718 24.176ZM179.381 26V12.51H185.252C185.86 12.51 186.418 12.6367 186.924 12.89C187.444 13.1433 187.887 13.479 188.254 13.897C188.622 14.3023 188.907 14.771 189.109 15.303C189.325 15.8223 189.432 16.3543 189.432 16.899C189.432 17.355 189.369 17.792 189.242 18.21C189.116 18.628 188.938 19.0143 188.71 19.369C188.482 19.7237 188.204 20.034 187.874 20.3C187.545 20.5533 187.184 20.7433 186.791 20.87L189.964 26H187.551L184.625 21.307H181.509V26H179.381ZM181.509 19.426H185.233C185.537 19.426 185.81 19.3627 186.05 19.236C186.304 19.0967 186.519 18.913 186.696 18.685C186.874 18.4443 187.013 18.172 187.114 17.868C187.216 17.564 187.266 17.241 187.266 16.899C187.266 16.557 187.203 16.234 187.076 15.93C186.962 15.626 186.804 15.36 186.601 15.132C186.411 14.904 186.183 14.7267 185.917 14.6C185.664 14.4607 185.398 14.391 185.119 14.391H181.509V19.426ZM191.943 26V12.51H194.071V26H191.943ZM207.019 14.391H202.535V26H200.388V14.391H195.885V12.51H207.019V14.391ZM209.816 12.51L213.54 19.274L217.302 12.51H219.639L214.604 21.174V26H212.476V21.136L207.479 12.51H209.816Z" fill="white"/>
<defs>
<linearGradient id="paint0_linear_19_224" x1="0" y1="19" x2="236" y2="19" gradientUnits="userSpaceOnUse">
<stop stop-color="#FF3333"/>
<stop offset="1" stop-color="#FF0000"/>
</linearGradient>
</defs>
</svg>
