<svg width="61" height="60" viewBox="0 0 61 60" fill="none" xmlns="http://www.w3.org/2000/svg">
<path d="M32.8334 5V25H52.8334C52.8334 19.6957 50.7262 14.6086 46.9755 10.8579C43.2248 7.10714 38.1377 5 32.8334 5ZM48.6334 39.725C51.2584 36.35 52.8334 32.1 52.8334 27.5H16.4334L14.0834 22.5H5.33337V27.5H10.8834C10.8834 27.5 15.6084 37.675 16.1834 38.55C13.4334 40 11.5834 42.925 11.5834 46.25C11.5834 48.5706 12.5052 50.7962 14.1462 52.4372C15.7871 54.0781 18.0127 55 20.3334 55C24.7334 55 28.3834 51.75 28.9834 47.5H34.1834C34.7834 51.75 38.4334 55 42.8334 55C45.154 55 47.3796 54.0781 49.0206 52.4372C50.6615 50.7962 51.5834 48.5706 51.5834 46.25C51.5834 43.65 50.4334 41.325 48.6334 39.725ZM20.3334 50C19.3388 50 18.385 49.6049 17.6817 48.9016C16.9785 48.1984 16.5834 47.2446 16.5834 46.25C16.5834 45.2554 16.9785 44.3016 17.6817 43.5984C18.385 42.8951 19.3388 42.5 20.3334 42.5C21.3279 42.5 22.2818 42.8951 22.985 43.5984C23.6883 44.3016 24.0834 45.2554 24.0834 46.25C24.0834 47.2446 23.6883 48.1984 22.985 48.9016C22.2818 49.6049 21.3279 50 20.3334 50ZM42.8334 50C41.8388 50 40.885 49.6049 40.1817 48.9016C39.4785 48.1984 39.0834 47.2446 39.0834 46.25C39.0834 45.2554 39.4785 44.3016 40.1817 43.5984C40.885 42.8951 41.8388 42.5 42.8334 42.5C43.8279 42.5 44.7818 42.8951 45.485 43.5984C46.1883 44.3016 46.5834 45.2554 46.5834 46.25C46.5834 47.2446 46.1883 48.1984 45.485 48.9016C44.7818 49.6049 43.8279 50 42.8334 50Z" fill="#FF3333"/>
</svg>
