<svg width="48" height="48" viewBox="0 0 48 48" fill="none" xmlns="http://www.w3.org/2000/svg">
<path d="M44 11H18C15.8 11 14 12.8 14 15V33C14 35.22 15.8 37 18 37H44C46.22 37 48 35.22 48 33V15C48 12.8 46.22 11 44 11ZM44 18.34L31 25L18 18.34V15L31 21.62L44 15V18.34ZM10 33C10 33.34 10.06 33.66 10.1 34H2C0.896 34 0 33.1 0 32C0 30.9 0.896 30 2 30H10V33ZM6 14H10.1C10.06 14.34 10 14.66 10 15V18H6C4.9 18 4 17.1 4 16C4 14.9 4.9 14 6 14ZM2 24C2 22.9 2.9 22 4 22H10V26H4C2.9 26 2 25.1 2 24Z" fill="#FF3333"/>
</svg>
