<svg width="61" height="60" viewBox="0 0 61 60" fill="none" xmlns="http://www.w3.org/2000/svg">
<path d="M11.2166 28.225L28.8916 10.55C34.7666 4.69998 44.2416 4.69998 50.1166 10.55C55.9666 16.4 55.9666 25.9 50.1166 31.775L32.4416 49.45C26.5666 55.3 17.0666 55.3 11.2166 49.45C5.3666 43.575 5.3666 34.1 11.2166 28.225ZM14.7666 31.775C12.1416 34.375 11.2666 38.1 12.1666 41.425L27.1416 26.475L37.7416 37.075L46.5666 28.225C50.4916 24.325 50.4916 18 46.5666 14.1C42.6666 10.175 36.3416 10.175 32.4416 14.1L14.7666 31.775Z" fill="#FF3333"/>
</svg>
