<svg width="61" height="60" viewBox="0 0 61 60" fill="none" xmlns="http://www.w3.org/2000/svg">
<path d="M20.3334 15C20.3334 9.475 24.8084 5 30.3334 5C35.8584 5 40.3334 9.475 40.3334 15C40.3334 20.525 35.8584 25 30.3334 25C24.8084 25 20.3334 20.525 20.3334 15ZM42.8334 55H45.3334C48.0834 55 50.3334 52.75 50.3334 50V38.05C50.3334 35.25 48.8084 32.675 46.3084 31.4C45.2334 30.85 44.0834 30.325 42.8334 29.85V55ZM31.1834 42.5L37.8334 28.325C35.5084 27.8 33.0084 27.5 30.3334 27.5C24.0084 27.5 18.5584 29.25 14.3584 31.4C11.8584 32.675 10.3334 35.25 10.3334 38.05V55H16.1834C15.6334 53.875 15.3334 52.6 15.3334 51.25C15.3334 46.425 19.2584 42.5 24.0834 42.5H31.1834ZM25.3334 55L28.8584 47.5H24.0834C22.0084 47.5 20.3334 49.175 20.3334 51.25C20.3334 53.325 22.0084 55 24.0834 55H25.3334Z" fill="#FF3333"/>
</svg>
