<svg width="61" height="60" viewBox="0 0 61 60" fill="none" xmlns="http://www.w3.org/2000/svg">
<path d="M30.6665 5C16.8415 5 5.6665 16.175 5.6665 30C5.6665 43.825 16.8415 55 30.6665 55C37.2969 55 43.6558 52.3661 48.3442 47.6777C53.0326 42.9893 55.6665 36.6304 55.6665 30C55.6665 16.175 44.4165 5 30.6665 5ZM17.5665 22.05L20.2165 19.4L22.8665 22.05L25.5165 19.4L28.1665 22.05L25.5165 24.7L28.1665 27.35L25.5165 30L22.8665 27.35L20.2165 30L17.5665 27.35L20.2165 24.7L17.5665 22.05ZM17.8915 43.75C19.8915 38.65 24.8415 35 30.6665 35C36.4915 35 41.4415 38.65 43.4415 43.75H17.8915ZM43.7665 27.35L41.1165 30L38.4665 27.35L35.8165 30L33.1665 27.35L35.8165 24.7L33.1665 22.05L35.8165 19.4L38.4665 22.05L41.1165 19.4L43.7665 22.05L41.1165 24.7L43.7665 27.35Z" fill="#FF3333"/>
</svg>
